<svg width="32" height="32" viewBox="0 0 32 32" fill="none" xmlns="http://www.w3.org/2000/svg">
<path d="M9.31826 4.57153H23.0328C25.5573 4.57153 27.604 6.61828 27.604 9.14278V22.8573C27.604 25.3818 25.5573 27.4285 23.0328 27.4285H9.31826C6.79376 27.4285 4.74701 25.3818 4.74701 22.8573V9.14278C4.74701 6.61828 6.79376 4.57153 9.31826 4.57153Z" fill="#303233"/>
<path d="M17.6237 14.7993L23.2952 8.20679H21.9512L17.0267 13.9308L13.0937 8.20679H8.55774L14.5052 16.8625L8.55774 23.776H9.90174L15.1022 17.731L19.2557 23.776H23.7917L17.6237 14.7993ZM15.7832 16.939L10.3855 9.21854H12.4495L21.9512 22.81H19.8872L15.7825 16.939H15.7832Z" fill="white"/>
</svg>
