<svg width="40" height="32" viewBox="0 0 40 32" fill="none" xmlns="http://www.w3.org/2000/svg">
<path d="M17.3183 4.57153H31.0328C33.5573 4.57153 35.604 6.61828 35.604 9.14278V22.8573C35.604 25.3818 33.5573 27.4285 31.0328 27.4285H17.3183C14.7938 27.4285 12.747 25.3818 12.747 22.8573V9.14278C12.747 6.61828 14.7938 4.57153 17.3183 4.57153Z" fill="#303233"/>
<path d="M16.557 12.8252H19.7318V23.6185H16.557V12.8252ZM18.1343 11.5555H18.1163C17.169 11.5555 16.5563 10.8497 16.5563 9.96774C16.5563 9.06699 17.1878 8.38074 18.1523 8.38074C19.1183 8.38074 19.713 9.06624 19.731 9.96774C19.731 10.849 19.1183 11.5555 18.1343 11.5555ZM31.7948 23.6192H28.62V17.842C28.62 16.4462 27.8423 15.4945 26.5935 15.4945C25.6403 15.4945 25.125 16.1372 24.8745 16.7582C24.783 16.9802 24.8108 17.5952 24.8108 17.9057V23.62H21.636V12.8267H24.8108V14.488C25.2683 13.7792 25.9853 12.8267 27.819 12.8267C30.0908 12.8267 31.794 14.2555 31.794 17.4452L31.7948 23.6207V23.6192Z" fill="white"/>
</svg>
